<?xml version="1.0" standalone="no"?><!-- Generator: Gravit.io --><svg xmlns="http://www.w3.org/2000/svg" xmlns:xlink="http://www.w3.org/1999/xlink" style="isolation:isolate" viewBox="0 0 286 286" width="286" height="286"><defs><clipPath id="_clipPath_K5C44k4OMucrMmaySE6Rv7uTlETT4OKu"><rect width="286" height="286"/></clipPath></defs><g clip-path="url(#_clipPath_K5C44k4OMucrMmaySE6Rv7uTlETT4OKu)"><ellipse vector-effect="non-scaling-stroke" cx="139.00000000000003" cy="241.9999999999999" rx="43" ry="14.000000000000028" fill="rgb(255,255,255)" stroke-width="4" stroke="rgb(0,0,0)" stroke-linejoin="miter" stroke-linecap="square" stroke-miterlimit="3"/><line x1="139" y1="241" x2="139" y2="124" vector-effect="non-scaling-stroke" stroke-width="4" stroke="rgb(0,0,0)" stroke-linejoin="miter" stroke-linecap="square" stroke-miterlimit="3"/><path d=" M 56.087 43.946 L 95.5 82 L 139 124 L 182.5 82 L 221.913 43.946 C 224.567 42.701 226 41.375 226 40 L 226 40 C 226 32.825 187.017 27 139 27 C 90.983 27 52 32.825 52 40 L 52 40 C 52 41.375 53.433 42.701 56.087 43.946 Z " fill-rule="evenodd" fill="none" vector-effect="non-scaling-stroke" stroke-width="4" stroke="rgb(0,0,0)" stroke-linejoin="miter" stroke-linecap="square" stroke-miterlimit="3"/><path d=" M 52 40 C 52 47.175 90.983 53 139 53 C 187.017 53 226 47.175 226 40 C 226 32.825 187.017 27 139 27 C 90.983 27 52 32.825 52 40 Z " fill="none" vector-effect="non-scaling-stroke" stroke-width="4" stroke="rgb(0,0,0)" stroke-linejoin="miter" stroke-linecap="square" stroke-miterlimit="3"/></g></svg>